<?xml version="1.0" encoding="UTF-8"?>
<svg xmlns="http://www.w3.org/2000/svg" xmlns:xlink="http://www.w3.org/1999/xlink" viewBox="0 0 250 250">
  <defs>
    <style>
      .cls-1, .cls-2, .cls-3, .cls-4, .cls-5, .cls-6, .cls-7, .cls-8, .cls-9, .cls-10, .cls-11, .cls-12, .cls-13, .cls-14 {
        fill: none;
      }

      .cls-2 {
        stroke-width: .09px;
      }

      .cls-2, .cls-3, .cls-4, .cls-5, .cls-6, .cls-7, .cls-8, .cls-9, .cls-10, .cls-11, .cls-12, .cls-13, .cls-14 {
        stroke: #fff;
        stroke-miterlimit: 10;
      }

      .cls-15 {
        fill: #eaeaea;
      }

      .cls-16 {
        fill: #e6e6e6;
      }

      .cls-17 {
        isolation: isolate;
      }

      .cls-18 {
        fill: #b71616;
        fill-rule: evenodd;
      }

      .cls-19 {
        clip-path: url(#clippath-17);
      }

      .cls-20 {
        clip-path: url(#clippath-19);
      }

      .cls-21 {
        clip-path: url(#clippath-11);
      }

      .cls-22 {
        clip-path: url(#clippath-16);
      }

      .cls-23 {
        clip-path: url(#clippath-18);
      }

      .cls-24 {
        clip-path: url(#clippath-10);
      }

      .cls-25 {
        clip-path: url(#clippath-15);
      }

      .cls-26 {
        clip-path: url(#clippath-13);
      }

      .cls-27 {
        clip-path: url(#clippath-14);
      }

      .cls-28 {
        clip-path: url(#clippath-12);
      }

      .cls-29 {
        clip-path: url(#clippath-27);
      }

      .cls-30 {
        clip-path: url(#clippath-26);
      }

      .cls-31 {
        clip-path: url(#clippath-20);
      }

      .cls-32 {
        clip-path: url(#clippath-21);
      }

      .cls-33 {
        clip-path: url(#clippath-22);
      }

      .cls-34 {
        clip-path: url(#clippath-23);
      }

      .cls-35 {
        clip-path: url(#clippath-24);
      }

      .cls-36 {
        clip-path: url(#clippath-25);
      }

      .cls-37 {
        clip-path: url(#clippath-1);
      }

      .cls-38 {
        clip-path: url(#clippath-3);
      }

      .cls-39 {
        clip-path: url(#clippath-4);
      }

      .cls-40 {
        clip-path: url(#clippath-2);
      }

      .cls-41 {
        clip-path: url(#clippath-7);
      }

      .cls-42 {
        clip-path: url(#clippath-6);
      }

      .cls-43 {
        clip-path: url(#clippath-9);
      }

      .cls-44 {
        clip-path: url(#clippath-8);
      }

      .cls-45 {
        clip-path: url(#clippath-5);
      }

      .cls-3 {
        stroke-width: .8px;
      }

      .cls-4 {
        stroke-width: .53px;
      }

      .cls-5 {
        stroke-width: .89px;
      }

      .cls-6 {
        stroke-width: 1.16px;
      }

      .cls-7 {
        stroke-width: 1.07px;
      }

      .cls-8 {
        stroke-width: .71px;
      }

      .cls-46 {
        fill: #fff;
      }

      .cls-9 {
        stroke-width: .27px;
      }

      .cls-10 {
        stroke-width: .62px;
      }

      .cls-11 {
        stroke-width: .45px;
      }

      .cls-12 {
        stroke-width: .36px;
      }

      .cls-13 {
        stroke-width: .18px;
      }

      .cls-14 {
        stroke-width: .98px;
      }

      .cls-47 {
        opacity: .89;
      }

      .cls-48 {
        opacity: .83;
      }

      .cls-49 {
        opacity: .78;
      }

      .cls-50 {
        opacity: .72;
      }

      .cls-51 {
        opacity: .94;
      }

      .cls-52 {
        opacity: .44;
      }

      .cls-53 {
        opacity: .38;
      }

      .cls-54 {
        opacity: .66;
      }

      .cls-55 {
        opacity: .61;
      }

      .cls-56 {
        opacity: .55;
      }

      .cls-57 {
        opacity: .49;
      }

      .cls-58 {
        opacity: .33;
      }

      .cls-59 {
        opacity: .27;
      }

      .cls-60 {
        fill: #e9e0ce;
      }

      .cls-61 {
        mix-blend-mode: soft-light;
      }

      .cls-62 {
        clip-path: url(#clippath);
      }

      .cls-63 {
        fill: #7f0000;
      }
    </style>
    <clipPath id="clippath">
      <path class="cls-1" d="M4.79,189.25L92.14,22.86l.35-.61h0c3.6-6.5,8.46-12.03,14.24-16.21C112.26,2.13,118.7.03,125.28,0c6.58,0,13.01,2.09,18.53,6.03,5.79,4.18,10.66,9.75,14.24,16.27.26.47.51.94.73,1.43l85.93,164.4.47.99h0c3.23,7.08,4.89,14.91,4.82,22.84-.03,6.54-1.54,12.98-4.39,18.72-3.22,6.41-8.15,11.58-14.12,14.82l-1.18.58c-5.84,2.78-12.17,4.11-18.53,3.9H34.51c-4.31-.04-8.58-.91-12.61-2.58-6.41-2.68-11.92-7.46-15.79-13.7C2.23,227.35.1,219.89,0,212.23c-.1-6.7.98-13.35,3.19-19.59.42-1.18.94-2.32,1.57-3.38h.02Z"/>
    </clipPath>
    <clipPath id="clippath-1">
      <rect class="cls-1" x="-176.65" y="-120.59" width="519.71" height="451.07"/>
    </clipPath>
    <clipPath id="clippath-2">
      <rect class="cls-1" x="-176.65" y="-120.59" width="519.71" height="451.07"/>
    </clipPath>
    <clipPath id="clippath-3">
      <rect class="cls-1" x="-176.65" y="-120.59" width="519.71" height="451.07"/>
    </clipPath>
    <clipPath id="clippath-4">
      <rect class="cls-1" x="-164.59" y="-108.98" width="499.9" height="433.89"/>
    </clipPath>
    <clipPath id="clippath-5">
      <rect class="cls-1" x="-152.54" y="-97.37" width="480.09" height="416.7"/>
    </clipPath>
    <clipPath id="clippath-6">
      <rect class="cls-1" x="-140.48" y="-85.77" width="460.27" height="399.52"/>
    </clipPath>
    <clipPath id="clippath-7">
      <rect class="cls-1" x="-128.43" y="-74.16" width="440.46" height="382.33"/>
    </clipPath>
    <clipPath id="clippath-8">
      <rect class="cls-1" x="-116.38" y="-62.56" width="420.65" height="365.15"/>
    </clipPath>
    <clipPath id="clippath-9">
      <rect class="cls-1" x="-104.32" y="-50.95" width="400.84" height="347.97"/>
    </clipPath>
    <clipPath id="clippath-10">
      <rect class="cls-1" x="-92.27" y="-39.34" width="381.03" height="330.78"/>
    </clipPath>
    <clipPath id="clippath-11">
      <rect class="cls-1" x="-80.21" y="-27.74" width="361.22" height="313.6"/>
    </clipPath>
    <clipPath id="clippath-12">
      <rect class="cls-1" x="-68.16" y="-16.13" width="341.41" height="296.42"/>
    </clipPath>
    <clipPath id="clippath-13">
      <rect class="cls-1" x="-56.1" y="-4.53" width="321.6" height="279.23"/>
    </clipPath>
    <clipPath id="clippath-14">
      <rect class="cls-1" x="-44.05" y="7.08" width="301.79" height="262.05"/>
    </clipPath>
    <clipPath id="clippath-15">
      <rect class="cls-1" x="-32" y="18.69" width="281.98" height="244.86"/>
    </clipPath>
    <clipPath id="clippath-16">
      <rect class="cls-1" x="336.2" y="26.2" width="197.17" height="197.17" rx="34.81" ry="34.81" transform="translate(39.11 343.99) rotate(-45)"/>
    </clipPath>
    <clipPath id="clippath-17">
      <rect class="cls-1" x="151.82" y="-120.59" width="519.71" height="451.07"/>
    </clipPath>
    <clipPath id="clippath-18">
      <rect class="cls-1" x="151.82" y="-120.59" width="519.71" height="451.07"/>
    </clipPath>
    <clipPath id="clippath-19">
      <rect class="cls-1" x="151.82" y="-120.59" width="519.71" height="451.07"/>
    </clipPath>
    <clipPath id="clippath-20">
      <rect class="cls-1" x="163.87" y="-108.98" width="499.9" height="433.89"/>
    </clipPath>
    <clipPath id="clippath-21">
      <rect class="cls-1" x="175.93" y="-97.37" width="480.09" height="416.7"/>
    </clipPath>
    <clipPath id="clippath-22">
      <rect class="cls-1" x="187.98" y="-85.77" width="460.27" height="399.52"/>
    </clipPath>
    <clipPath id="clippath-23">
      <rect class="cls-1" x="200.03" y="-74.16" width="440.46" height="382.33"/>
    </clipPath>
    <clipPath id="clippath-24">
      <rect class="cls-1" x="212.09" y="-62.56" width="420.65" height="365.15"/>
    </clipPath>
    <clipPath id="clippath-25">
      <rect class="cls-1" x="224.14" y="-50.95" width="400.84" height="347.97"/>
    </clipPath>
    <clipPath id="clippath-26">
      <rect class="cls-1" x="236.2" y="-39.34" width="381.03" height="330.78"/>
    </clipPath>
    <clipPath id="clippath-27">
      <rect class="cls-1" x="248.25" y="-27.74" width="361.22" height="313.6"/>
    </clipPath>
  </defs>
  <g class="cls-17">
    <g id="Layer_1" data-name="Layer 1">
      <g>
        <g class="cls-62">
          <path class="cls-63" d="M4.79,189.25L92.14,22.86l.35-.61h0c3.6-6.5,8.46-12.03,14.24-16.21C112.26,2.13,118.7.03,125.28,0c6.58,0,13.01,2.09,18.53,6.03,5.79,4.18,10.66,9.75,14.24,16.27.26.47.51.94.73,1.43l85.93,164.4.47.99h0c3.23,7.08,4.89,14.91,4.82,22.84-.03,6.54-1.54,12.98-4.39,18.72-3.22,6.41-8.15,11.58-14.12,14.82l-1.18.58c-5.84,2.78-12.17,4.11-18.53,3.9H34.51c-4.31-.04-8.58-.91-12.61-2.58-6.41-2.68-11.92-7.46-15.79-13.7C2.23,227.35.1,219.89,0,212.23c-.1-6.7.98-13.35,3.19-19.59.42-1.18.94-2.32,1.57-3.38h.02Z"/>
          <path class="cls-18" d="M18.31,198.96L106.09,31.74c10.64-18.49,27.52-18.96,38.39,0l86.33,165.2c6.88,15.26,3.46,35.86-19,35.35H35.85c-14.79.4-24.41-13.88-17.58-33.33h.04Z"/>
          <g class="cls-61">
            <g class="cls-37">
              <g class="cls-40">
                <g class="cls-59">
                  <g class="cls-38">
                    <path class="cls-16" d="M247.9,70.99c-4.99-44.77-33.06-82.94-76.66-84.65-27.68-1.15-67.67,20.75-90.71,59.38,29.14,27.03,84.97,47.23,139.48,55.39l27.89-30.12ZM265.29,244.68c-29.59-1.9-49.8-8.49-81.19-17.68-67.99,61.66-144.33,95.24-216.28,103.48l-144.47-101.46,2.04-14.95c120.15-5.54,204.67-16.71,263.83-29.65-31.42-18.41-49.41-36.95-56.74-59.19-7.41-22.15-9.24-105.33,0-127.49,20.32-38.85,86.86-118.32,158.97-118.32s107.18,81.34,107.18,147.9c0,27.7-14.81,57.85-25.92,81.83,24.05,3.77,51.85,6.89,70.34,8.76v14.4l-77.77,112.38Z"/>
                  </g>
                </g>
                <g class="cls-58">
                  <g class="cls-39">
                    <path class="cls-16" d="M243.74,75.3c-4.8-43.05-31.79-79.76-73.72-81.41-26.62-1.11-65.08,19.96-87.24,57.11,28.02,26,81.72,45.42,134.14,53.27l26.82-28.97ZM260.47,242.34c-28.46-1.83-47.89-8.17-78.08-17-65.38,59.29-138.8,91.59-208,99.52l-138.93-97.58,1.96-14.38c115.55-5.33,196.83-16.07,253.73-28.51-30.22-17.71-47.47-35.55-54.56-56.92-7.08-21.32-9.81-101.7,0-122.61,17.9-38.18,83.53-113.79,152.89-113.79s103.08,78.23,103.08,142.24c0,26.64-14.24,55.63-24.93,78.69,23.13,3.62,49.86,6.62,67.65,8.42v13.84l-74.79,108.08Z"/>
                    <path class="cls-2" d="M243.74,75.3c-4.8-43.05-31.79-79.76-73.72-81.41-26.62-1.11-65.08,19.96-87.24,57.11,28.02,26,81.72,45.42,134.14,53.27l26.82-28.97ZM260.47,242.34c-28.46-1.83-47.89-8.17-78.08-17-65.38,59.29-138.8,91.59-208,99.52l-138.93-97.58,1.96-14.38c115.55-5.33,196.83-16.07,253.73-28.51-30.22-17.71-47.47-35.55-54.56-56.92-7.08-21.32-9.81-101.7,0-122.61,17.9-38.18,83.53-113.79,152.89-113.79s103.08,78.23,103.08,142.24c0,26.64-14.24,55.63-24.93,78.69,23.13,3.62,49.86,6.62,67.65,8.42v13.84l-74.79,108.08Z"/>
                  </g>
                </g>
                <g class="cls-53">
                  <g class="cls-45">
                    <path class="cls-16" d="M239.59,79.62C234.98,38.28,209.06,3.03,168.8,1.45c-25.56-1.06-62.49,19.17-83.76,54.84,26.9,24.96,78.46,43.61,128.8,51.15l25.75-27.81ZM255.64,240c-27.33-1.75-45.98-7.84-74.97-16.32-62.78,56.93-133.27,87.94-199.71,95.56l-133.4-93.69,1.88-13.8c110.95-5.12,188.99-15.43,243.62-27.38-29.02-17-45.58-34.14-52.39-54.66-6.8-20.47-9.42-97.65,0-117.73,17.19-36.66,80.2-109.26,146.8-109.26s98.97,75.11,98.97,136.58c0,25.57-13.68,53.42-23.94,75.56,22.21,3.48,47.87,6.36,64.95,8.09v13.29l-71.81,103.77Z"/>
                    <path class="cls-13" d="M239.59,79.62C234.98,38.28,209.06,3.03,168.8,1.45c-25.56-1.06-62.49,19.17-83.76,54.84,26.9,24.96,78.46,43.61,128.8,51.15l25.75-27.81ZM255.64,240c-27.33-1.75-45.98-7.84-74.97-16.32-62.78,56.93-133.27,87.94-199.71,95.56l-133.4-93.69,1.88-13.8c110.95-5.12,188.99-15.43,243.62-27.38-29.02-17-45.58-34.14-52.39-54.66-6.8-20.47-9.42-97.65,0-117.73,17.19-36.66,80.2-109.26,146.8-109.26s98.97,75.11,98.97,136.58c0,25.57-13.68,53.42-23.94,75.56,22.21,3.48,47.87,6.36,64.95,8.09v13.29l-71.81,103.77Z"/>
                  </g>
                </g>
                <g class="cls-52">
                  <g class="cls-42">
                    <path class="cls-16" d="M235.43,83.93c-4.42-39.62-29.26-73.41-67.85-74.93-24.5-1.02-59.89,18.37-80.29,52.56,25.79,23.93,75.21,41.81,123.45,49.03l24.69-26.66ZM250.82,237.66c-26.19-1.68-44.07-7.52-71.86-15.65-60.18,54.57-127.75,84.3-191.43,91.59l-127.87-89.8,1.8-13.23c106.35-4.91,181.15-14.79,233.52-26.24-27.81-16.3-43.69-32.72-50.22-52.39-6.52-19.62-9.03-93.6,0-112.85,16.48-35.14,76.88-104.73,140.71-104.73S280.34-13.64,280.34,45.28c0,24.51-13.11,51.2-22.94,72.43,21.29,3.34,45.89,6.09,62.26,7.75v12.74l-68.83,99.47Z"/>
                    <path class="cls-9" d="M235.43,83.93c-4.42-39.62-29.26-73.41-67.85-74.93-24.5-1.02-59.89,18.37-80.29,52.56,25.79,23.93,75.21,41.81,123.45,49.03l24.69-26.66ZM250.82,237.66c-26.19-1.68-44.07-7.52-71.86-15.65-60.18,54.57-127.75,84.3-191.43,91.59l-127.87-89.8,1.8-13.23c106.35-4.91,181.15-14.79,233.52-26.24-27.81-16.3-43.69-32.72-50.22-52.39-6.52-19.62-9.03-93.6,0-112.85,16.48-35.14,76.88-104.73,140.71-104.73S280.34-13.64,280.34,45.28c0,24.51-13.11,51.2-22.94,72.43,21.29,3.34,45.89,6.09,62.26,7.75v12.74l-68.83,99.47Z"/>
                  </g>
                </g>
                <g class="cls-57">
                  <g class="cls-41">
                    <path class="cls-16" d="M231.27,88.24c-4.22-37.91-27.99-70.23-64.92-71.69-23.44-.97-57.3,17.58-76.81,50.29,24.67,22.89,71.96,40,118.11,46.91l23.62-25.51ZM246,235.33c-25.06-1.61-42.17-7.19-68.75-14.97-57.57,52.21-122.22,80.65-183.15,87.63l-122.34-85.92,1.72-12.66c101.75-4.69,173.32-14.15,223.41-25.11-26.61-15.59-41.8-31.31-48.05-50.12-6.23-18.78-8.63-89.55,0-107.96,15.76-33.62,73.55-100.2,134.62-100.2S274.24-5.1,274.24,51.26c0,23.45-12.54,48.98-21.95,69.29,20.37,3.19,43.9,5.83,59.57,7.41v12.19l-65.86,95.16Z"/>
                    <path class="cls-12" d="M231.27,88.24c-4.22-37.91-27.99-70.23-64.92-71.69-23.44-.97-57.3,17.58-76.81,50.29,24.67,22.89,71.96,40,118.11,46.91l23.62-25.51ZM246,235.33c-25.06-1.61-42.17-7.19-68.75-14.97-57.57,52.21-122.22,80.65-183.15,87.63l-122.34-85.92,1.72-12.66c101.75-4.69,173.32-14.15,223.41-25.11-26.61-15.59-41.8-31.31-48.05-50.12-6.23-18.78-8.63-89.55,0-107.96,15.76-33.62,73.55-100.2,134.62-100.2S274.24-5.1,274.24,51.26c0,23.45-12.54,48.98-21.95,69.29,20.37,3.19,43.9,5.83,59.57,7.41v12.19l-65.86,95.16Z"/>
                  </g>
                </g>
                <g class="cls-56">
                  <g class="cls-44">
                    <path class="cls-16" d="M227.12,92.56c-4.03-36.19-26.73-67.06-61.98-68.45-22.38-.93-54.71,16.78-73.34,48.01,23.56,21.86,68.7,38.19,112.77,44.79l22.55-24.35ZM241.18,232.99c-23.93-1.53-40.26-6.87-65.64-14.29C120.56,268.54,58.84,295.7.67,302.36l-116.8-82.03,1.65-12.09c97.14-4.48,165.48-13.51,213.31-23.97-25.41-14.89-39.91-29.89-45.87-47.86-5.95-17.93-8.24-85.5,0-103.08C68,1.24,123.17-62.33,181.48-62.33S268.14,3.43,268.14,57.25c0,22.39-11.97,46.77-20.96,66.16,19.45,3.05,41.92,5.57,56.87,7.08v11.64l-62.88,90.86Z"/>
                    <path class="cls-11" d="M227.12,92.56c-4.03-36.19-26.73-67.06-61.98-68.45-22.38-.93-54.71,16.78-73.34,48.01,23.56,21.86,68.7,38.19,112.77,44.79l22.55-24.35ZM241.18,232.99c-23.93-1.53-40.26-6.87-65.64-14.29C120.56,268.54,58.84,295.7.67,302.36l-116.8-82.03,1.65-12.09c97.14-4.48,165.48-13.51,213.31-23.97-25.41-14.89-39.91-29.89-45.87-47.86-5.95-17.93-8.24-85.5,0-103.08C68,1.24,123.17-62.33,181.48-62.33S268.14,3.43,268.14,57.25c0,22.39-11.97,46.77-20.96,66.16,19.45,3.05,41.92,5.57,56.87,7.08v11.64l-62.88,90.86Z"/>
                  </g>
                </g>
                <g class="cls-55">
                  <g class="cls-43">
                    <path class="cls-16" d="M222.96,96.87c-3.84-34.48-25.46-63.88-59.05-65.2-21.32-.89-52.12,15.99-69.87,45.74,22.44,20.82,65.45,36.38,107.43,42.66l21.48-23.2ZM236.35,230.65c-22.79-1.46-38.35-6.54-62.54-13.62-52.36,47.49-111.17,73.36-166.58,79.71l-111.27-78.15,1.57-11.51c92.54-4.27,157.64-12.87,203.21-22.84-24.2-14.18-38.02-28.47-43.7-45.59-5.67-17.08-7.85-81.45,0-98.2,14.34-30.58,66.9-91.14,122.44-91.14s82.55,62.65,82.55,113.92c0,21.33-11.41,44.55-19.97,63.03,18.53,2.9,39.93,5.3,54.18,6.74v11.09l-59.9,86.56Z"/>
                    <path class="cls-4" d="M222.96,96.87c-3.84-34.48-25.46-63.88-59.05-65.2-21.32-.89-52.12,15.99-69.87,45.74,22.44,20.82,65.45,36.38,107.43,42.66l21.48-23.2ZM236.35,230.65c-22.79-1.46-38.35-6.54-62.54-13.62-52.36,47.49-111.17,73.36-166.58,79.71l-111.27-78.15,1.57-11.51c92.54-4.27,157.64-12.87,203.21-22.84-24.2-14.18-38.02-28.47-43.7-45.59-5.67-17.08-7.85-81.45,0-98.2,14.34-30.58,66.9-91.14,122.44-91.14s82.55,62.65,82.55,113.92c0,21.33-11.41,44.55-19.97,63.03,18.53,2.9,39.93,5.3,54.18,6.74v11.09l-59.9,86.56Z"/>
                  </g>
                </g>
                <g class="cls-54">
                  <g class="cls-24">
                    <path class="cls-16" d="M218.8,101.19c-3.65-32.76-24.2-60.7-56.11-61.96-20.26-.84-49.53,15.19-66.39,43.46,21.33,19.79,62.19,34.57,102.09,40.54l20.41-22.05ZM231.53,228.31c-21.66-1.39-36.45-6.22-59.43-12.94-49.76,45.13-105.64,69.71-158.3,75.74l-105.74-74.26,1.49-10.94c87.94-4.06,149.8-12.23,193.1-21.7-23-13.48-36.13-27.06-41.53-43.32-5.39-16.23-7.46-77.4,0-93.32,13.62-29.06,63.57-86.6,116.36-86.6s78.45,59.54,78.45,108.25c0,20.27-10.84,42.34-18.97,59.89,17.6,2.76,37.95,5.04,51.49,6.41v10.54l-56.92,82.25Z"/>
                    <path class="cls-10" d="M218.8,101.19c-3.65-32.76-24.2-60.7-56.11-61.96-20.26-.84-49.53,15.19-66.39,43.46,21.33,19.79,62.19,34.57,102.09,40.54l20.41-22.05ZM231.53,228.31c-21.66-1.39-36.45-6.22-59.43-12.94-49.76,45.13-105.64,69.71-158.3,75.74l-105.74-74.26,1.49-10.94c87.94-4.06,149.8-12.23,193.1-21.7-23-13.48-36.13-27.06-41.53-43.32-5.39-16.23-7.46-77.4,0-93.32,13.62-29.06,63.57-86.6,116.36-86.6s78.45,59.54,78.45,108.25c0,20.27-10.84,42.34-18.97,59.89,17.6,2.76,37.95,5.04,51.49,6.41v10.54l-56.92,82.25Z"/>
                  </g>
                </g>
                <g class="cls-50">
                  <g class="cls-21">
                    <path class="cls-16" d="M214.65,105.5c-3.46-31.05-22.93-57.53-53.17-58.72-19.2-.8-46.94,14.4-62.92,41.19,20.21,18.75,58.94,32.76,96.75,38.42l19.35-20.89ZM226.71,225.98c-20.53-1.32-34.54-5.89-56.32-12.26-47.16,42.77-100.11,66.06-150.02,71.78l-100.21-70.38,1.41-10.37c83.34-3.84,141.96-11.59,183-20.57-21.8-12.77-34.24-25.64-39.35-41.06-5.11-15.38-7.07-73.35,0-88.43,12.91-27.54,60.25-82.07,110.27-82.07s74.34,56.42,74.34,102.59c0,19.21-10.27,40.12-17.98,56.76,16.68,2.61,35.96,4.78,48.79,6.07v9.98l-53.94,77.95Z"/>
                    <path class="cls-8" d="M214.65,105.5c-3.46-31.05-22.93-57.53-53.17-58.72-19.2-.8-46.94,14.4-62.92,41.19,20.21,18.75,58.94,32.76,96.75,38.42l19.35-20.89ZM226.71,225.98c-20.53-1.32-34.54-5.89-56.32-12.26-47.16,42.77-100.11,66.06-150.02,71.78l-100.21-70.38,1.41-10.37c83.34-3.84,141.96-11.59,183-20.57-21.8-12.77-34.24-25.64-39.35-41.06-5.11-15.38-7.07-73.35,0-88.43,12.91-27.54,60.25-82.07,110.27-82.07s74.34,56.42,74.34,102.59c0,19.21-10.27,40.12-17.98,56.76,16.68,2.61,35.96,4.78,48.79,6.07v9.98l-53.94,77.95Z"/>
                  </g>
                </g>
                <g class="cls-49">
                  <g class="cls-28">
                    <path class="cls-16" d="M210.49,109.81c-3.27-29.34-21.66-54.35-50.24-55.48-18.14-.75-44.35,13.6-59.44,38.92,19.09,17.71,55.69,30.95,91.41,36.3l18.28-19.74ZM221.89,223.64c-19.39-1.24-32.63-5.57-53.21-11.59-44.55,40.4-94.58,62.41-141.73,67.82l-94.67-66.49,1.33-9.8c78.74-3.63,134.12-10.95,172.9-19.43-20.59-12.07-32.35-24.23-37.18-38.79-4.82-14.53-6.68-69.3,0-83.55,12.2-26.02,56.92-77.54,104.18-77.54s70.24,53.31,70.24,96.93c0,18.15-9.71,37.91-16.99,53.63,15.76,2.47,33.98,4.51,46.1,5.74v9.43l-50.96,73.65Z"/>
                    <path class="cls-3" d="M210.49,109.81c-3.27-29.34-21.66-54.35-50.24-55.48-18.14-.75-44.35,13.6-59.44,38.92,19.09,17.71,55.69,30.95,91.41,36.3l18.28-19.74ZM221.89,223.64c-19.39-1.24-32.63-5.57-53.21-11.59-44.55,40.4-94.58,62.41-141.73,67.82l-94.67-66.49,1.33-9.8c78.74-3.63,134.12-10.95,172.9-19.43-20.59-12.07-32.35-24.23-37.18-38.79-4.82-14.53-6.68-69.3,0-83.55,12.2-26.02,56.92-77.54,104.18-77.54s70.24,53.31,70.24,96.93c0,18.15-9.71,37.91-16.99,53.63,15.76,2.47,33.98,4.51,46.1,5.74v9.43l-50.96,73.65Z"/>
                  </g>
                </g>
                <g class="cls-48">
                  <g class="cls-26">
                    <path class="cls-16" d="M206.33,114.13c-3.08-27.62-20.4-51.18-47.3-52.23-17.08-.71-41.75,12.81-55.97,36.64,17.98,16.68,52.43,29.14,86.06,34.18l17.21-18.59ZM217.06,221.3c-18.26-1.17-30.73-5.24-50.1-10.91-41.95,38.04-89.06,58.77-133.45,63.85l-89.14-62.6,1.26-9.22c74.14-3.42,126.29-10.31,162.79-18.3-19.39-11.36-30.46-22.81-35.01-36.52-4.54-13.68-6.29-65.25,0-78.67C84.9,44.43,127.01-4.08,171.51-4.08s66.14,50.19,66.14,91.26c0,17.09-9.14,35.69-16,50.49,14.84,2.32,31.99,4.25,43.4,5.4v8.88l-47.99,69.34Z"/>
                    <path class="cls-5" d="M206.33,114.13c-3.08-27.62-20.4-51.18-47.3-52.23-17.08-.71-41.75,12.81-55.97,36.64,17.98,16.68,52.43,29.14,86.06,34.18l17.21-18.59ZM217.06,221.3c-18.26-1.17-30.73-5.24-50.1-10.91-41.95,38.04-89.06,58.77-133.45,63.85l-89.14-62.6,1.26-9.22c74.14-3.42,126.29-10.31,162.79-18.3-19.39-11.36-30.46-22.81-35.01-36.52-4.54-13.68-6.29-65.25,0-78.67C84.9,44.43,127.01-4.08,171.51-4.08s66.14,50.19,66.14,91.26c0,17.09-9.14,35.69-16,50.49,14.84,2.32,31.99,4.25,43.4,5.4v8.88l-47.99,69.34Z"/>
                  </g>
                </g>
                <g class="cls-47">
                  <g class="cls-27">
                    <path class="cls-16" d="M202.18,118.44c-2.89-25.91-19.13-48-44.37-48.99-16.02-.67-39.16,12.01-52.5,34.37,16.86,15.64,49.18,27.33,80.72,32.06l16.14-17.43ZM212.24,218.96c-17.13-1.1-28.82-4.92-46.99-10.23-39.35,35.68-83.53,55.12-125.17,59.89l-83.61-58.72,1.18-8.65c69.54-3.21,118.45-9.67,152.69-17.16-18.19-10.66-28.56-21.39-32.84-34.26-4.26-12.83-5.9-61.2,0-73.79C88.28,53.07,127.77,7.57,169.51,7.57s62.03,47.08,62.03,85.6c0,16.03-8.57,33.48-15,47.36,13.92,2.18,30,3.98,40.71,5.07v8.33l-45.01,65.04Z"/>
                    <path class="cls-14" d="M202.18,118.44c-2.89-25.91-19.13-48-44.37-48.99-16.02-.67-39.16,12.01-52.5,34.37,16.86,15.64,49.18,27.33,80.72,32.06l16.14-17.43ZM212.24,218.96c-17.13-1.1-28.82-4.92-46.99-10.23-39.35,35.68-83.53,55.12-125.17,59.89l-83.61-58.72,1.18-8.65c69.54-3.21,118.45-9.67,152.69-17.16-18.19-10.66-28.56-21.39-32.84-34.26-4.26-12.83-5.9-61.2,0-73.79C88.28,53.07,127.77,7.57,169.51,7.57s62.03,47.08,62.03,85.6c0,16.03-8.57,33.48-15,47.36,13.92,2.18,30,3.98,40.71,5.07v8.33l-45.01,65.04Z"/>
                  </g>
                </g>
                <g class="cls-51">
                  <g class="cls-25">
                    <path class="cls-16" d="M198.02,122.76c-2.7-24.19-17.87-44.82-41.43-45.75-14.96-.62-36.57,11.22-49.02,32.09,15.75,14.61,45.92,25.53,75.38,29.94l15.07-16.28ZM207.42,216.62c-15.99-1.03-26.91-4.59-43.88-9.55-36.74,33.32-78,51.47-116.89,55.93l-78.08-54.83,1.1-8.08c64.93-3,110.61-9.03,142.58-16.02-16.98-9.95-26.67-19.98-30.66-31.99-3.98-11.98-5.51-57.15,0-68.9,10.06-21.45,46.94-63.95,85.92-63.95s57.93,43.96,57.93,79.93c0,14.97-8,31.26-14.01,44.22,13,2.04,28.02,3.72,38.02,4.73v7.78l-42.03,60.73Z"/>
                    <path class="cls-7" d="M198.02,122.76c-2.7-24.19-17.87-44.82-41.43-45.75-14.96-.62-36.57,11.22-49.02,32.09,15.75,14.61,45.92,25.53,75.38,29.94l15.07-16.28ZM207.42,216.62c-15.99-1.03-26.91-4.59-43.88-9.55-36.74,33.32-78,51.47-116.89,55.93l-78.08-54.83,1.1-8.08c64.93-3,110.61-9.03,142.58-16.02-16.98-9.95-26.67-19.98-30.66-31.99-3.98-11.98-5.51-57.15,0-68.9,10.06-21.45,46.94-63.95,85.92-63.95s57.93,43.96,57.93,79.93c0,14.97-8,31.26-14.01,44.22,13,2.04,28.02,3.72,38.02,4.73v7.78l-42.03,60.73Z"/>
                  </g>
                </g>
                <path class="cls-6" d="M193.86,127.07c-2.5-22.48-16.6-41.65-38.49-42.51-13.9-.58-33.98,10.42-45.55,29.82,14.63,13.57,42.67,23.72,70.04,27.82l14-15.13ZM202.6,214.29c-14.86-.95-25-4.27-40.77-8.88-34.14,30.96-72.47,47.82-108.6,51.96l-72.54-50.95,1.02-7.51c60.33-2.78,102.77-8.39,132.48-14.89-15.78-9.25-24.81-18.56-28.49-29.72-3.72-11.12-4.64-52.89,0-64.02,10.21-19.51,43.61-59.42,79.83-59.42s53.82,40.85,53.82,74.27c0,13.91-7.44,29.05-13.02,41.09,12.08,1.89,26.03,3.46,35.32,4.4v7.23l-39.05,56.43Z"/>
              </g>
            </g>
          </g>
        </g>
        <g>
          <rect class="cls-15" x="101.67" y="74.23" width="46.66" height="92.8"/>
          <path class="cls-15" d="M132.78,34.31h-15.55c-7,19.18-21.77,25.4-21.77,25.4h59.1s-14.77-6.22-21.77-25.4Z"/>
          <path class="cls-15" d="M178.92,35.93l-45.56-6.99v-4.81l45.56-6.99c5.76-.88,10.94,3.57,10.94,9.39h0c0,5.82-5.19,10.28-10.94,9.39Z"/>
          <path class="cls-15" d="M71.08,17.14l45.56,6.99v4.81l-45.56,6.99c-5.76.88-10.94-3.57-10.94-9.39h0c0-5.82,5.19-10.28,10.94-9.39Z"/>
          <path class="cls-46" d="M132.26,34.31h-14.52c-4.29,0-7.78-3.48-7.78-7.78h0c0-4.29,3.48-7.78,7.78-7.78h14.52c4.29,0,7.78,3.48,7.78,7.78h0c0,4.29-3.48,7.78-7.78,7.78Z"/>
          <rect class="cls-46" x="95.45" y="59.71" width="59.1" height="20.74"/>
          <rect class="cls-60" x="95.45" y="152.51" width="59.1" height="20.74"/>
        </g>
        <path class="cls-46" d="M150.1,218.9c0,13.86-11.24,25.1-25.1,25.1s-25.1-11.24-25.1-25.1c0-18.72,25.1-39.95,25.1-39.95,0,0,25.1,20.36,25.1,39.95Z"/>
      </g>
      <g class="cls-22">
        <g class="cls-61">
          <g class="cls-19">
            <g class="cls-23">
              <g class="cls-59">
                <g class="cls-20">
                  <path class="cls-16" d="M576.37,70.99c-4.99-44.77-33.06-82.94-76.66-84.65-27.68-1.15-67.67,20.75-90.71,59.38,29.14,27.03,84.97,47.23,139.48,55.39l27.89-30.12ZM593.76,244.68c-29.59-1.9-49.8-8.49-81.19-17.68-67.99,61.66-144.33,95.24-216.28,103.48l-144.47-101.46,2.04-14.95c120.15-5.54,204.67-16.71,263.83-29.65-31.42-18.41-49.41-36.95-56.74-59.19-7.41-22.15-9.24-105.33,0-127.49,20.32-38.85,86.86-118.32,158.97-118.32s107.18,81.34,107.18,147.9c0,27.7-14.81,57.85-25.92,81.83,24.05,3.77,51.85,6.89,70.34,8.76v14.4l-77.77,112.38Z"/>
                </g>
              </g>
              <g class="cls-58">
                <g class="cls-31">
                  <path class="cls-16" d="M572.21,75.3c-4.8-43.05-31.79-79.76-73.72-81.41-26.62-1.11-65.08,19.96-87.24,57.11,28.02,26,81.72,45.42,134.14,53.27l26.82-28.97ZM588.93,242.34c-28.46-1.83-47.89-8.17-78.08-17-65.38,59.29-138.8,91.59-208,99.52l-138.93-97.58,1.96-14.38c115.55-5.33,196.83-16.07,253.73-28.51-30.22-17.71-47.47-35.55-54.56-56.92-7.08-21.32-9.81-101.7,0-122.61,17.9-38.18,83.53-113.79,152.89-113.79s103.08,78.23,103.08,142.24c0,26.64-14.24,55.63-24.93,78.69,23.13,3.62,49.86,6.62,67.65,8.42v13.84l-74.79,108.08Z"/>
                  <path class="cls-2" d="M572.21,75.3c-4.8-43.05-31.79-79.76-73.72-81.41-26.62-1.11-65.08,19.96-87.24,57.11,28.02,26,81.72,45.42,134.14,53.27l26.82-28.97ZM588.93,242.34c-28.46-1.83-47.89-8.17-78.08-17-65.38,59.29-138.8,91.59-208,99.52l-138.93-97.58,1.96-14.38c115.55-5.33,196.83-16.07,253.73-28.51-30.22-17.71-47.47-35.55-54.56-56.92-7.08-21.32-9.81-101.7,0-122.61,17.9-38.18,83.53-113.79,152.89-113.79s103.08,78.23,103.08,142.24c0,26.64-14.24,55.63-24.93,78.69,23.13,3.62,49.86,6.62,67.65,8.42v13.84l-74.79,108.08Z"/>
                </g>
              </g>
              <g class="cls-53">
                <g class="cls-32">
                  <path class="cls-16" d="M568.05,79.62c-4.61-41.34-30.53-76.58-70.79-78.17-25.56-1.06-62.49,19.17-83.76,54.84,26.9,24.96,78.46,43.61,128.8,51.15l25.75-27.81ZM584.11,240c-27.33-1.75-45.98-7.84-74.97-16.32-62.78,56.93-133.27,87.94-199.71,95.56l-133.4-93.69,1.88-13.8c110.95-5.12,188.99-15.43,243.62-27.38-29.02-17-45.58-34.14-52.39-54.66-6.8-20.47-9.42-97.65,0-117.73,17.19-36.66,80.2-109.26,146.8-109.26s98.97,75.11,98.97,136.58c0,25.57-13.68,53.42-23.94,75.56,22.21,3.48,47.87,6.36,64.95,8.09v13.29l-71.81,103.77Z"/>
                  <path class="cls-13" d="M568.05,79.62c-4.61-41.34-30.53-76.58-70.79-78.17-25.56-1.06-62.49,19.17-83.76,54.84,26.9,24.96,78.46,43.61,128.8,51.15l25.75-27.81ZM584.11,240c-27.33-1.75-45.98-7.84-74.97-16.32-62.78,56.93-133.27,87.94-199.71,95.56l-133.4-93.69,1.88-13.8c110.95-5.12,188.99-15.43,243.62-27.38-29.02-17-45.58-34.14-52.39-54.66-6.8-20.47-9.42-97.65,0-117.73,17.19-36.66,80.2-109.26,146.8-109.26s98.97,75.11,98.97,136.58c0,25.57-13.68,53.42-23.94,75.56,22.21,3.48,47.87,6.36,64.95,8.09v13.29l-71.81,103.77Z"/>
                </g>
              </g>
              <g class="cls-52">
                <g class="cls-33">
                  <path class="cls-16" d="M563.9,83.93c-4.42-39.62-29.26-73.41-67.85-74.93-24.5-1.02-59.89,18.37-80.29,52.56,25.79,23.93,75.21,41.81,123.45,49.03l24.69-26.66ZM579.29,237.66c-26.19-1.68-44.07-7.52-71.86-15.65-60.18,54.57-127.75,84.3-191.43,91.59l-127.87-89.8,1.8-13.23c106.35-4.91,181.15-14.79,233.52-26.24-27.81-16.3-43.69-32.72-50.22-52.39-6.52-19.62-9.03-93.6,0-112.85,16.48-35.14,76.88-104.73,140.71-104.73s94.87,72,94.87,130.91c0,24.51-13.11,51.2-22.94,72.43,21.29,3.34,45.89,6.09,62.26,7.75v12.74l-68.83,99.47Z"/>
                  <path class="cls-9" d="M563.9,83.93c-4.42-39.62-29.26-73.41-67.85-74.93-24.5-1.02-59.89,18.37-80.29,52.56,25.79,23.93,75.21,41.81,123.45,49.03l24.69-26.66ZM579.29,237.66c-26.19-1.68-44.07-7.52-71.86-15.65-60.18,54.57-127.75,84.3-191.43,91.59l-127.87-89.8,1.8-13.23c106.35-4.91,181.15-14.79,233.52-26.24-27.81-16.3-43.69-32.72-50.22-52.39-6.52-19.62-9.03-93.6,0-112.85,16.48-35.14,76.88-104.73,140.71-104.73s94.87,72,94.87,130.91c0,24.51-13.11,51.2-22.94,72.43,21.29,3.34,45.89,6.09,62.26,7.75v12.74l-68.83,99.47Z"/>
                </g>
              </g>
              <g class="cls-57">
                <g class="cls-34">
                  <path class="cls-16" d="M559.74,88.24c-4.22-37.91-27.99-70.23-64.92-71.69-23.44-.97-57.3,17.58-76.81,50.29,24.67,22.89,71.96,40,118.11,46.91l23.62-25.51ZM574.46,235.33c-25.06-1.61-42.17-7.19-68.75-14.97-57.57,52.21-122.22,80.65-183.15,87.63l-122.34-85.92,1.72-12.66c101.75-4.69,173.32-14.15,223.41-25.11-26.61-15.59-41.8-31.31-48.05-50.12-6.23-18.78-8.63-89.55,0-107.96,15.76-33.62,73.55-100.2,134.62-100.2s90.76,68.88,90.76,125.25c0,23.45-12.54,48.98-21.95,69.29,20.37,3.19,43.9,5.83,59.57,7.41v12.19l-65.86,95.16Z"/>
                  <path class="cls-12" d="M559.74,88.24c-4.22-37.91-27.99-70.23-64.92-71.69-23.44-.97-57.3,17.58-76.81,50.29,24.67,22.89,71.96,40,118.11,46.91l23.62-25.51ZM574.46,235.33c-25.06-1.61-42.17-7.19-68.75-14.97-57.57,52.21-122.22,80.65-183.15,87.63l-122.34-85.92,1.72-12.66c101.75-4.69,173.32-14.15,223.41-25.11-26.61-15.59-41.8-31.31-48.05-50.12-6.23-18.78-8.63-89.55,0-107.96,15.76-33.62,73.55-100.2,134.62-100.2s90.76,68.88,90.76,125.25c0,23.45-12.54,48.98-21.95,69.29,20.37,3.19,43.9,5.83,59.57,7.41v12.19l-65.86,95.16Z"/>
                </g>
              </g>
              <g class="cls-56">
                <g class="cls-35">
                  <path class="cls-16" d="M555.58,92.56c-4.03-36.19-26.73-67.06-61.98-68.45-22.38-.93-54.71,16.78-73.34,48.01,23.56,21.86,68.7,38.19,112.77,44.79l22.55-24.35ZM569.64,232.99c-23.93-1.53-40.26-6.87-65.64-14.29-54.97,49.85-116.69,77-174.86,83.67l-116.8-82.03,1.65-12.09c97.14-4.48,165.48-13.51,213.31-23.97-25.41-14.89-39.91-29.89-45.87-47.86-5.95-17.93-8.24-85.5,0-103.08,15.05-32.1,70.23-95.67,128.53-95.67s86.66,65.77,86.66,119.58c0,22.39-11.97,46.77-20.96,66.16,19.45,3.05,41.92,5.57,56.87,7.08v11.64l-62.88,90.86Z"/>
                  <path class="cls-11" d="M555.58,92.56c-4.03-36.19-26.73-67.06-61.98-68.45-22.38-.93-54.71,16.78-73.34,48.01,23.56,21.86,68.7,38.19,112.77,44.79l22.55-24.35ZM569.64,232.99c-23.93-1.53-40.26-6.87-65.64-14.29-54.97,49.85-116.69,77-174.86,83.67l-116.8-82.03,1.65-12.09c97.14-4.48,165.48-13.51,213.31-23.97-25.41-14.89-39.91-29.89-45.87-47.86-5.95-17.93-8.24-85.5,0-103.08,15.05-32.1,70.23-95.67,128.53-95.67s86.66,65.77,86.66,119.58c0,22.39-11.97,46.77-20.96,66.16,19.45,3.05,41.92,5.57,56.87,7.08v11.64l-62.88,90.86Z"/>
                </g>
              </g>
              <g class="cls-55">
                <g class="cls-36">
                  <path class="cls-16" d="M551.43,96.87c-3.84-34.48-25.46-63.88-59.05-65.2-21.32-.89-52.12,15.99-69.87,45.74,22.44,20.82,65.45,36.38,107.43,42.66l21.48-23.2ZM564.82,230.65c-22.79-1.46-38.35-6.54-62.54-13.62-52.36,47.49-111.17,73.36-166.58,79.71l-111.27-78.15,1.57-11.51c92.54-4.27,157.64-12.87,203.21-22.84-24.2-14.18-38.02-28.47-43.7-45.59-5.67-17.08-7.85-81.45,0-98.2,14.34-30.58,66.9-91.14,122.44-91.14s82.55,62.65,82.55,113.92c0,21.33-11.41,44.55-19.97,63.03,18.53,2.9,39.93,5.3,54.18,6.74v11.09l-59.9,86.56Z"/>
                  <path class="cls-4" d="M551.43,96.87c-3.84-34.48-25.46-63.88-59.05-65.2-21.32-.89-52.12,15.99-69.87,45.74,22.44,20.82,65.45,36.38,107.43,42.66l21.48-23.2ZM564.82,230.65c-22.79-1.46-38.35-6.54-62.54-13.62-52.36,47.49-111.17,73.36-166.58,79.71l-111.27-78.15,1.57-11.51c92.54-4.27,157.64-12.87,203.21-22.84-24.2-14.18-38.02-28.47-43.7-45.59-5.67-17.08-7.85-81.45,0-98.2,14.34-30.58,66.9-91.14,122.44-91.14s82.55,62.65,82.55,113.92c0,21.33-11.41,44.55-19.97,63.03,18.53,2.9,39.93,5.3,54.18,6.74v11.09l-59.9,86.56Z"/>
                </g>
              </g>
              <g class="cls-54">
                <g class="cls-30">
                  <path class="cls-16" d="M547.27,101.19c-3.65-32.76-24.2-60.7-56.11-61.96-20.26-.84-49.53,15.19-66.39,43.46,21.33,19.79,62.19,34.57,102.09,40.54l20.41-22.05ZM560,228.31c-21.66-1.39-36.45-6.22-59.43-12.94-49.76,45.13-105.64,69.71-158.3,75.74l-105.74-74.26,1.49-10.94c87.94-4.06,149.8-12.23,193.1-21.7-23-13.48-36.13-27.06-41.53-43.32-5.39-16.23-7.46-77.4,0-93.32,13.62-29.06,63.57-86.6,116.36-86.6s78.45,59.54,78.45,108.25c0,20.27-10.84,42.34-18.97,59.89,17.6,2.76,37.95,5.04,51.49,6.41v10.54l-56.92,82.25Z"/>
                  <path class="cls-10" d="M547.27,101.19c-3.65-32.76-24.2-60.7-56.11-61.96-20.26-.84-49.53,15.19-66.39,43.46,21.33,19.79,62.19,34.57,102.09,40.54l20.41-22.05ZM560,228.31c-21.66-1.39-36.45-6.22-59.43-12.94-49.76,45.13-105.64,69.71-158.3,75.74l-105.74-74.26,1.49-10.94c87.94-4.06,149.8-12.23,193.1-21.7-23-13.48-36.13-27.06-41.53-43.32-5.39-16.23-7.46-77.4,0-93.32,13.62-29.06,63.57-86.6,116.36-86.6s78.45,59.54,78.45,108.25c0,20.27-10.84,42.34-18.97,59.89,17.6,2.76,37.95,5.04,51.49,6.41v10.54l-56.92,82.25Z"/>
                </g>
              </g>
              <g class="cls-50">
                <g class="cls-29">
                  <path class="cls-16" d="M543.11,105.5c-3.46-31.05-22.93-57.53-53.17-58.72-19.2-.8-46.94,14.4-62.92,41.19,20.21,18.75,58.94,32.76,96.75,38.42l19.35-20.89ZM555.17,225.98c-20.53-1.32-34.54-5.89-56.32-12.26-47.16,42.77-100.11,66.06-150.02,71.78l-100.21-70.38,1.41-10.37c83.34-3.84,141.96-11.59,183-20.57-21.8-12.77-34.24-25.64-39.35-41.06-5.11-15.38-7.07-73.35,0-88.43,12.91-27.54,60.25-82.07,110.27-82.07s74.34,56.42,74.34,102.59c0,19.21-10.27,40.12-17.98,56.76,16.68,2.61,35.96,4.78,48.79,6.07v9.98l-53.94,77.95Z"/>
                  <path class="cls-8" d="M543.11,105.5c-3.46-31.05-22.93-57.53-53.17-58.72-19.2-.8-46.94,14.4-62.92,41.19,20.21,18.75,58.94,32.76,96.75,38.42l19.35-20.89ZM555.17,225.98c-20.53-1.32-34.54-5.89-56.32-12.26-47.16,42.77-100.11,66.06-150.02,71.78l-100.21-70.38,1.41-10.37c83.34-3.84,141.96-11.59,183-20.57-21.8-12.77-34.24-25.64-39.35-41.06-5.11-15.38-7.07-73.35,0-88.43,12.91-27.54,60.25-82.07,110.27-82.07s74.34,56.42,74.34,102.59c0,19.21-10.27,40.12-17.98,56.76,16.68,2.61,35.96,4.78,48.79,6.07v9.98l-53.94,77.95Z"/>
                </g>
              </g>
            </g>
          </g>
        </g>
      </g>
    </g>
  </g>
</svg>